<svg width="50" height="50" viewBox="0 0 50 50" fill="none" xmlns="http://www.w3.org/2000/svg">
<path d="M26.7769 7.9467H26.2337V6.80387H32.0057C32.734 6.80387 33.3244 6.21346 33.3244 5.48519C33.3244 4.75692 32.734 4.1665 32.0057 4.1665C32.0057 4.1665 24.9667 4.1665 24.9151 4.1665C24.1868 4.1665 23.5964 4.75692 23.5964 5.48519V7.9467H23.2231C19.9182 7.9467 17.0963 10.1585 16.239 13.2507H33.7609C32.9036 10.1585 30.0818 7.9467 26.7769 7.9467Z" fill="#282308"/>
<path d="M16.3837 42.832L16.5088 44.6071C16.5575 45.2976 17.1319 45.833 17.8242 45.833H32.0056C32.6979 45.833 33.2723 45.2976 33.3211 44.6071L33.4461 42.832H16.3837Z" fill="#282308"/>
<path d="M26.2337 24.2896V35.9785C26.2337 36.7068 25.6433 37.2972 24.915 37.2972C24.1868 37.2972 23.5964 36.7068 23.5964 35.9785V24.2896H15.0767L16.1979 40.1947H33.6322L34.7534 24.2896H26.2337Z" fill="#282308"/>
<path d="M35.6148 15.8882C35.4074 15.7521 35.1597 15.6724 34.8931 15.6724H15.107C14.8404 15.6724 14.5926 15.7521 14.3852 15.8882C14.026 16.1238 13.7883 16.5294 13.7883 16.991V20.4216C13.7883 20.984 14.1409 21.4627 14.6366 21.6524C14.7829 21.7083 14.941 21.7403 15.1069 21.7403H17.5409H32.2892H34.893C35.0589 21.7403 35.2171 21.7083 35.3633 21.6524C35.859 21.4628 36.2116 20.984 36.2116 20.4216V16.991C36.2118 16.5294 35.9741 16.1237 35.6148 15.8882Z" fill="#282308"/>
</svg>
